<svg xmlns="http://www.w3.org/2000/svg" viewBox="57 1130 1024 700" width="1024" height="700">
  <path
    fill="white"
    d="m 527.11848,1664.5479 c 11.30161,-8.7536 19.8979,-14.2754 36.3381,-54.3679 4.97159,-12.1241 -2.98149,-0.6151 3.92118,-28.7686 1.48426,-6.0536 2.58144,-11.505 2.99394,-11.9872 0.41251,-0.4822 7.11592,2.1355 14.8965,5.8171 17.73142,8.3901 24.34986,11.0117 39.53763,15.6615 30.13002,9.2245 52.1411,8.6681 57.31308,-1.4489 0.85421,-1.6708 1.55299,-5.5704 1.55299,-8.666 0,-11.2269 -12.39942,-31.0473 -30.01053,-47.9718 -8.4814,-8.1506 -12.23733,-10.3161 -14.54027,-8.3828 -0.98381,0.826 -1.40776,0.8424 -1.40776,0.055 0,-0.6198 -0.6377,-0.8796 -1.41715,-0.5771 -0.93889,0.3645 2.95074,4.9733 11.52487,13.6559 17.01876,17.234 26.35417,30.7306 28.22202,40.802 1.33229,7.1838 -4.59412,12.0771 -14.62697,12.0771 -17.02887,0 -53.71186,-11.4939 -81.14075,-25.4238 -7.28085,-3.6977 -9.24747,-5.2732 -8.3715,-6.7069 0.9204,-1.5064 2.47696,-20.9803 1.73519,-21.7088 -0.42803,-0.4204 -2.21336,-0.148 -3.96745,0.6055 -2.99455,1.2862 -3.23436,1.7972 -3.93088,8.3762 -1.2034,11.367 -0.81939,11.177 -10.75277,5.3252 -4.77459,-2.8127 -10.18871,-5.9934 -12.03134,-7.068 -1.84263,-1.0747 -5.24499,-1.9539 -7.56069,-1.9539 h -4.21042 l 2.33071,2.0446 c 1.28184,1.1245 2.80194,1.7502 3.37796,1.39 0.57907,-0.362 0.74024,-0.152 0.36031,0.4697 -0.61023,0.9987 12.74952,10.6544 22.58465,16.3227 1.82557,1.0521 3.31923,2.2855 3.31923,2.7409 0,0.4553 1.08104,7.0333 -0.36716,13.6926 -3.12804,14.3833 -14.30618,46.1547 -16.71646,56.3093 -1.63163,6.8742 -11.60953,12.2917 -13.08072,17.135 -5.78506,19.0458 -23.74464,22.038 -7.62748,15.1719 4.3392,-1.8486 8.50529,-14.9978 7.17944,-14.3073 -2.21827,1.1554 -14.8246,7.1046 -16.70584,7.6303 -6.50854,1.8184 -11.45031,-0.1629 -18.55826,-7.3758 -10.29421,-10.4462 -23.10408,-27.6616 -30.54304,-51.9455 -1.70455,-5.5641 0.35542,-12.2038 -1.16459,-18.4178 -4.17242,-17.0571 -4.27169,-18.6993 -1.22678,-20.3055 1.26386,-0.6665 6.66399,-4.1173 12.00029,-7.6682 11.17385,-7.4354 17.55228,-12.8869 15.07798,-12.8869 -0.89701,0 -1.89891,0.5811 -2.22665,1.2913 -0.47653,1.0331 -0.71491,1.0331 -1.19145,0 -0.32773,-0.7102 -1.3618,-1.2842 -2.29792,-1.2755 -1.48109,0.013 -1.50315,0.1567 -0.17025,1.1007 1.19584,0.8468 1.02252,0.9398 -0.78967,0.4235 -1.73468,-0.4941 -4.57503,0.7631 -11.23432,4.973 -14.32844,9.0581 -13.13751,8.9335 -13.95352,1.4602 -1.02028,-9.3442 -1.55463,-10.9146 -3.99707,-11.7472 -5.10365,-1.7397 -5.05687,-1.8203 -4.17733,7.2042 1.5628,16.0351 1.92618,14.9065 -6.18949,19.2225 -17.17757,9.1354 -46.07917,19.8989 -62.81002,23.3919 -10.2316,2.1361 -25.0708,2.495 -28.26145,0.6836 -6.59036,-3.7416 -6.9904,-7.8763 -1.81822,-18.7931 5.26909,-11.1214 9.3783,-16.4637 24.8649,-32.3257 12.60173,-12.9073 15.6494,-16.9341 9.54069,-12.6061 -2.03647,1.4428 -2.19733,1.4428 -1.64991,0 0.43099,-1.1362 -0.0266,-1.5987 -1.58087,-1.5987 -3.15317,0 -19.37981,16.1276 -28.06444,27.893 -9.21898,12.4894 -14.03309,22.8403 -14.09947,30.3153 -0.0592,6.724 1.99868,10.2666 7.77721,13.3847 3.59743,1.9411 5.76065,2.2504 15.41878,2.2046 6.17888,-0.029 13.99183,-0.6437 17.36212,-1.3654 17.1306,-3.6681 39.76192,-11.7123 58.32223,-20.7305 l 14.40627,-6.9998 2.87659,13.0318 c 3.06901,13.9035 4.44787,32.911 9.37371,45.1829 7.20201,17.9429 18.6412,27.4088 26.42525,34.3396 7.59102,6.7589 11.76273,10.0717 20.32461,9.638 3.38796,-0.1716 6.95526,0.1012 8.22495,-1.332 0.70183,-0.792 1.76817,-0.5811 2.01492,-1.3742 0.15554,-0.4999 1.05756,-1.2205 1.89421,-1.8686 z m 38.17062,-139.444 5.93386,-6.4567 -5.1923,-0.3172 c -4.49301,-0.2744 -5.58416,0.063 -8.10198,2.5027 l -2.90958,2.8197 -42.08956,0.174 -42.08946,0.1741 -4.21235,-3.0034 c -3.36509,-2.3992 -5.08751,-2.9377 -8.56382,-2.6767 l -4.35146,0.3268 5.78618,6.4567 5.78619,6.4567 h 47.03521 47.0351 z m -158.8296,-17.8104 c 7.3211,-3.6231 13.92493,-11.208 16.23971,-18.6522 4.55889,-14.6608 -2.39189,-31.1357 -16.24573,-38.506 -4.48781,-2.3876 -6.3862,-2.7515 -14.36307,-2.7533 -10.55638,0 -15.0738,1.8007 -21.95798,8.7642 -6.84925,6.9282 -8.64337,11.5279 -8.66349,22.2111 -0.0143,7.6151 0.40382,10.1628 2.31079,14.078 7.79478,16.0032 26.91568,22.6598 42.67977,14.8582 z m -21.37798,-8.18 c -8.07583,-3.0316 -13.86334,-11.4786 -13.90532,-20.2951 -0.0276,-5.7046 3.85725,-14.1424 7.88577,-17.1293 12.65362,-9.3822 30.3925,-3.0447 33.99493,12.1451 2.19784,9.2673 -1.52255,18.5027 -9.4503,23.4587 -4.6076,2.8806 -13.39978,3.7445 -18.52508,1.8206 z m 88.40741,10.6269 c 6.82525,-1.4612 10.07871,-3.1456 15.33576,-7.9391 5.66046,-5.1615 8.94741,-12.5306 8.96038,-20.0865 l 0.0102,-5.9402 h -16.34081 -16.34082 v 4.6489 4.6488 h 11.20234 c 12.50359,0 12.55271,0.045 7.48154,6.9827 -3.56332,4.8745 -9.65201,7.6869 -16.64128,7.6869 -21.13501,0 -28.99474,-26.3902 -11.55276,-38.7903 7.98311,-5.6753 19.71837,-4.5879 26.37909,2.4444 2.52139,2.6623 3.65544,3.081 8.34403,3.081 2.98435,0 5.42607,-0.3079 5.42607,-0.6841 0,-0.3762 -1.1796,-2.7202 -2.62147,-5.2089 -5.16105,-8.9081 -16.29303,-14.3898 -27.39191,-13.4886 -16.91091,1.373 -28.79304,13.5928 -30.01492,30.8678 -0.41659,5.8889 -0.095,7.7366 2.24941,12.9301 4.48127,9.9267 12.16707,16.5951 21.76219,18.8818 5.41413,1.2903 7.59032,1.2848 13.75315,-0.035 z m -291.27592,-21.7372 v -21.8628 l 6.38313,8.2114 c 3.51073,4.5163 10.97909,14.3416 16.59615,21.8341 l 10.21301,13.6228 5.36183,0.029 5.36183,0.029 v -30.9922 -30.9923 h -5.1065 -5.10651 l -0.14002,6.9733 c -0.0766,3.8353 -0.24317,13.3785 -0.3693,21.2071 -0.12603,7.8287 -0.45468,14.462 -0.73023,14.7408 -0.27565,0.2788 -1.60314,-1.0879 -2.95003,-3.0371 -1.34689,-1.9491 -8.70578,-11.8449 -16.35308,-21.9908 l -13.90419,-18.447 -4.73455,0.3809 -4.73455,0.3809 v 30.8882 30.8882 h 5.10651 5.1065 z m 104.99467,16.9558 -0.3113,-4.9071 -17.61744,-0.2827 -17.61745,-0.2826 v -7.7237 -7.7237 h 12.25562 12.25561 v -5.1654 -5.1653 l -10.46834,0.01 c -5.75758,0 -13.57054,0.3037 -17.36212,0.6659 l -6.89378,0.6586 v 17.413 17.4129 h 23.03525 23.03524 z m 30.20743,-5.9402 c 4.387,-5.9659 8.13732,-10.8473 8.33412,-10.8473 0.19671,0 3.92956,4.8813 8.29512,10.8473 l 7.93745,10.8473 h 5.90495 c 3.24764,0 5.90486,-0.2576 5.90486,-0.5722 0,-0.4854 -12.94223,-18.7917 -19.39522,-27.4333 l -2.01258,-2.6952 10.70395,-15.2749 c 5.88709,-8.4012 10.70385,-15.4401 10.70385,-15.6419 0,-0.2019 -2.67397,-0.367 -5.94213,-0.367 h -5.94203 l -7.56897,10.8473 c -4.16293,5.966 -7.85432,10.8473 -8.20319,10.8473 -0.34878,0 -4.03506,-4.8585 -8.19166,-10.7968 l -7.55732,-10.7967 -5.87248,-0.051 c -3.22987,-0.028 -5.87248,0.2144 -5.87248,0.5382 0,0.8067 5.19413,8.4122 13.48546,19.746 3.81732,5.2181 6.94056,9.893 6.94056,10.3887 0,0.4958 -4.81717,7.3836 -10.70487,15.3065 -5.8877,7.9227 -10.71335,14.7536 -10.72366,15.1798 -0.0102,0.4261 2.64047,0.7748 5.89056,0.7748 h 5.90935 z m 204.8912,-1.0331 v -11.8803 l 7.40443,0.026 7.40444,0.026 8.17041,11.8207 8.1704,11.8206 5.87249,0.034 c 3.22986,0.019 5.87248,-0.334 5.87248,-0.7835 0,-0.4495 -3.72203,-5.8972 -8.27121,-12.1061 -8.20381,-11.1965 -8.24997,-11.2945 -5.65944,-11.9953 7.04881,-1.9069 12.93049,-10.1321 12.88698,-18.0218 -0.0317,-5.7129 -3.16991,-12.051 -7.69877,-15.548 l -3.85838,-2.9793 -20.16579,-0.3177 -20.1659,-0.3177 -0.53659,6.5161 c -0.48961,5.9459 -0.46081,14.621 0.1489,44.9982 l 0.21254,10.589 h 5.1065 5.10651 z m 0,-30.9922 v -8.7811 h 12.70938 c 11.89887,0 12.88872,0.1561 15.52378,2.4488 2.1433,1.8648 2.81439,3.3749 2.81439,6.3323 0,2.9574 -0.67109,4.4674 -2.81439,6.3323 -2.63506,2.2926 -3.62491,2.4488 -15.52378,2.4488 h -12.70938 z m 69.05844,26.6017 c 9.74128,-20.7512 15.01426,-31.2523 15.68811,-31.2442 0.3933,0 9.88099,19.4897 12.02511,24.6962 0.14226,0.3455 -1.0067,0.6459 -2.55326,0.6675 -13.30755,0.1865 -14.59296,0.4176 -15.46709,2.7812 -2.77314,7.4985 -3.65738,6.8764 10.23548,7.1992 l 12.50665,0.2906 2.89416,5.9402 2.89417,5.9402 h 5.56935 c 6.65542,0 7.34204,2.9477 -5.89515,-25.3103 -18.4545,-39.3957 -16.86464,-36.5395 -20.74865,-37.2765 -1.90657,-0.3617 -4.16017,-0.3885 -5.00806,-0.059 -0.84788,0.3291 -8.38141,14.5591 -16.74106,31.6223 l -15.19942,31.0238 h 6.08073 6.08062 z m 90.79593,1.033 c 3.82191,-8.3807 10.32127,-22.1172 14.44303,-30.5253 4.12187,-8.4081 7.49421,-15.4976 7.49421,-15.7544 0,-0.2567 -2.64262,-0.4508 -5.87248,-0.4308 l -5.87248,0.036 -9.62801,20.8837 c -5.29545,11.4861 -10.20883,21.7615 -10.91873,22.8345 -1.37284,2.0748 -1.18819,2.4243 -17.50521,-33.1788 l -4.8427,-10.5666 -5.87248,-0.023 c -3.22987,-0.012 -5.87249,0.1423 -5.87249,0.3436 0,0.2014 5.88689,12.637 13.08185,27.6348 7.19496,14.9977 13.68493,28.7796 14.4221,30.6262 1.21606,3.0463 1.74142,3.3575 5.66741,3.3575 h 4.32704 z m 42.36326,-15.6934 c 0,-18.1746 -0.39565,-31.1786 -0.9593,-31.531 -0.52761,-0.3298 -2.82554,-0.2979 -5.10651,0.071 l -4.1472,0.6708 v 30.8602 30.8602 h 5.10651 5.1065 z m 42.89465,5.1044 v -25.8268 h 7.02145 c 3.86185,0 8.48037,-0.2952 10.26336,-0.6559 3.11834,-0.6308 3.23028,-0.8303 2.93624,-5.2308 l -0.30567,-4.5749 h -10.72366 c -5.89802,-0.0001 -17.29789,0.028 -25.33318,0.065 l -14.6094,0.067 0.31119,4.9071 0.31129,4.9071 h 9.44734 9.44734 l -0.0003,25.3963 c -0.0002,13.968 0.30608,25.7063 0.68059,26.0852 0.37451,0.3788 2.90223,0.6887 5.61716,0.6887 h 4.93625 z m 62.29938,13.1377 v -12.6891 l 12.76626,-17.9286 c 7.02145,-9.8607 12.76627,-18.0972 12.76627,-18.3031 0,-0.206 -2.72586,-0.3745 -6.05744,-0.3745 h -6.05744 l -5.88821,8.5229 c -3.23855,4.6876 -7.36961,10.5168 -9.18027,12.9537 l -3.29217,4.4309 -8.99848,-12.9538 -8.99848,-12.9537 h -5.89209 c -3.24069,0 -5.87851,0.3487 -5.86176,0.7748 0.0163,0.4262 5.53178,8.5724 12.25562,18.1026 l 12.22518,17.3278 v 12.8896 12.8897 h 5.1065 5.10651 z m -248.05905,-42.3917 c 1.14018,-2.7447 0.92019,-3.2157 -3.86072,-8.2645 -2.78836,-2.9448 -7.95972,-8.7245 -11.49189,-12.8438 l -6.42214,-7.4898 h -47.10446 -47.10435 l -6.91942,6.9455 c -3.80567,3.8201 -6.91941,7.3067 -6.91941,7.7481 0,0.4413 2.39342,0.8025 5.31883,0.8025 4.68604,0 5.74901,-0.4244 8.93639,-3.5686 l 3.61755,-3.5685 42.69876,-0.1529 c 40.2456,-0.1441 42.81979,-0.043 44.80367,1.7607 3.66851,3.3351 15.20625,18.2809 17.36998,22.5008 l 2.0808,4.0583 1.8937,-2.5087 c 1.04152,-1.3796 2.43774,-3.8183 3.10271,-5.4191 z m -294.45124,-1.9965 0.31129,-4.9071 h -23.03524 -23.03525 v 5.1851 5.1851 l 22.72395,-0.278 22.72395,-0.278 z m 101.09778,-18.966 c 3.10548,-0.6282 3.09281,-0.645 -11.43009,-15.2378 -15.68412,-15.7597 -23.83973,-26.8278 -26.82376,-36.4035 -1.60978,-5.1655 -1.63684,-6.0344 -0.26595,-8.5084 2.34511,-4.232 6.52019,-5.7351 15.75092,-5.6708 18.52824,0.1289 50.18347,10.2582 83.49137,26.716 4.39221,2.1702 4.34186,1.815 2.25667,15.9212 -0.86535,5.8537 -1.41563,10.8026 -1.22301,10.9974 0.19261,0.1948 2.00532,0.083 4.02821,-0.2495 4.03047,-0.6616 3.62419,0.4247 5.44885,-14.5704 0.36297,-2.983 0.96656,-5.4236 1.34127,-5.4236 0.37472,0 6.19123,3.258 12.92569,7.24 11.04344,6.5297 12.73972,7.2223 17.29329,7.0605 l 5.0487,-0.1793 -3.33751,-2.6701 c -1.83569,-1.4685 -9.39291,-6.4284 -16.79377,-11.022 -9.85974,-6.1197 -13.5447,-8.9602 -13.78756,-10.6279 -0.1822,-1.2518 1.11802,-8.1334 2.88956,-15.2924 10.45435,-42.2481 26.83153,-72.9669 41.51426,-77.8685 12.80804,-4.2758 25.07458,5.8398 37.01941,30.528 7.73279,15.9827 15.78983,41.7493 18.90582,60.4585 l 0.60614,3.6394 -12.00315,7.1723 c -12.99278,7.7637 -20.58115,12.9895 -20.64427,14.2167 -0.0215,0.4261 2.07477,0.7748 4.65928,0.7748 3.89963,0 6.69473,-1.1425 16.42855,-6.715 6.45115,-3.6933 12.07555,-6.715 12.49858,-6.715 0.42302,0 1.28806,4.2636 1.92239,9.4746 1.18951,9.7723 1.95059,11.1434 6.20134,11.1711 2.35104,0.015 2.40956,-0.177 1.80372,-5.9244 -0.34438,-3.2671 -0.91815,-8.9922 -1.27499,-12.7227 l -0.64873,-6.7826 8.54747,-4.2603 c 33.19801,-16.5467 71.76357,-27.2969 86.16586,-24.0188 9.7665,2.2228 11.84148,7.1951 7.20569,17.2669 -4.68124,10.1705 -11.09542,18.4078 -25.73199,33.0462 -8.06604,8.067 -14.66272,14.8078 -14.65935,14.9795 0,0.1718 2.07344,0.3702 4.60004,0.4408 4.4255,0.1239 4.93666,-0.1979 13.952,-8.7811 12.10905,-11.5286 22.43482,-24.5043 27.18887,-34.1664 3.26296,-6.6314 3.78597,-8.6762 3.78597,-14.8007 0,-6.8437 -0.13625,-7.2325 -3.68966,-10.5266 -6.13873,-5.6905 -15.27131,-6.8727 -32.56654,-4.2158 -17.15438,2.6353 -40.87778,10.6495 -63.23018,21.3602 -6.97171,3.3406 -12.85747,5.8902 -13.0795,5.6657 -0.22203,-0.2246 -1.74183,-6.452 -3.37724,-13.8386 -4.28926,-19.3721 -9.28056,-33.8674 -17.33097,-50.331 -10.53922,-21.5534 -19.46314,-31.2843 -31.76226,-34.6342 -18.41937,-5.0171 -36.75827,13.8498 -51.1821,52.6551 -3.83264,10.3112 -12.04237,40.7735 -12.04237,44.6834 0,2.427 0.0633,2.44 -7.94051,-1.6281 -35.51157,-18.0488 -75.08658,-28.542 -92.08695,-24.4167 -17.89034,4.3413 -18.19448,20.2379 -0.84033,43.9203 8.2898,11.3127 27.06336,29.4178 30.52567,29.4386 0.35112,0 2.03729,-0.2791 3.74715,-0.625 z"
  />
</svg>